{"title":"Harry.Brown.2009.720p.BRRip.x264.aac.mp4-anoXmous","uid":6840730,"size":733740518,"categoryP":"video","categoryS":"hd___movies","magnet":"?xt=urn:btih:613a4bbcdfdb5f6924587167c6f3a97f923424c6&amp;dn=Harry.Brown.2009.720p.BRRip.x264.aac.mp4-anoXmous&amp;tr=udp%3A%2F%2Ftracker.openbittorrent.com%3A80&amp;tr=udp%3A%2F%2Fopen.demonii.com%3A1337&amp;tr=udp%3A%2F%2Ftracker.coppersurfer.tk%3A6969&amp;tr=udp%3A%2F%2Fexodus.desync.com%3A6969","seeders":0,"leechers":0,"uploader":"anoXmous","files":-1,"time":1322155155,"description":"Harry.Brown.2009.720p.BRRip.x264.aac.mp4-anoXmous\n\nFormat                           : MPEG-4\nFormat profile                   : Base Media\nCodec ID                         : isom\nFile size                        : 700 MiB\nDuration                         : 1h 42mn\nOverall bit rate mode            : Variable\nOverall bit rate                 : 952 Kbps\n\nVideo\nID                               : 1\nFormat                           : AVC\nFormat/Info                      : Advanced Video Codec\nFormat profile                   : &lt;a class=&quot;__cf_email__&quot; href=&quot;/cdn-cgi/l/email-protection&quot; data-cfemail=&quot;2f674648476f631b011e&quot;&gt;[email&amp;#160;protected]&lt;/a&gt;&lt;script cf-hash='f9e31' type=&quot;text/javascript&quot;&gt;\n/* &lt;![CDATA[ */!function(){try{var t=&quot;currentScript&quot;in document?document.currentScript:function(){for(var t=document.getElementsByTagName(&quot;script&quot;),e=t.length;e--;)if(t[e].getAttribute(&quot;cf-hash&quot;))return t[e]}();if(t&amp;&amp;t.previousSibling){var e,r,n,i,c=t.previousSibling,a=c.getAttribute(&quot;data-cfemail&quot;);if(a){for(e=&quot;&quot;,r=parseInt(a.substr(0,2),16),n=2;a.length-n;n+=2)i=parseInt(a.substr(n,2),16)^r,e+=String.fromCharCode(i);e=document.createTextNode(e),c.parentNode.replaceChild(e,c)}}}catch(u){}}();/* ]]&gt; */&lt;/script&gt;\nFormat settings, CABAC           : Yes\nFormat settings, ReFrames        : 4 frames\nCodec ID                         : avc1\nCodec ID/Info                    : Advanced Video Coding\nDuration                         : 1h 42mn\nBit rate                         : 878 Kbps\nMaximum bit rate                 : 5 689 Kbps\nWidth                            : 1 280 pixels\nHeight                           : 544 pixels\nDisplay aspect ratio             : 2.35:1\nOriginal display aspect ratio    : 2.35:1\nFrame rate mode                  : Constant\nFrame rate                       : 23.976 fps\nColor space                      : YUV\nChroma subsampling               : 4:2:0\nBit depth                        : 8 bits\nScan type                        : Progressive\nBits/(Pixel*Frame)               : 0.053\nStream size                      : 645 MiB (92%)\nWriting library                  : x264 core 119 r2106 07efeb4\n\nAudio\nID                               : 2\nFormat                           : AAC\nFormat profile                   : LC\nCodec ID                         : 40\nDuration                         : 1h 42mn\nBit rate mode                    : Variable\nBit rate                         : 72.0 Kbps\nMaximum bit rate                 : 96.0 Kbps\nChannel(s)                       : 2 channels\nChannel positions                : Front: L R\nSampling rate                    : 48.0 KHz \nCompression mode                 : Lossy\nStream size                      : 52.2 MiB (7%)\nLanguage                         : English\n:06:02\n\n                             SUB:\n\nHarry.Brown.2009.720p.BRRip.x264.aac.mp4-anoXmous_swe.srt\n &lt;a href=&quot;\nhttp://www.imdb.com/title/tt1289406/&quot; rel=&quot;nofollow&quot; target=&quot;_NEW&quot;&gt;\nhttp://www.imdb.com/title/tt1289406/&lt;/a&gt;\t ","torrent":{"xt":"urn:btih:613a4bbcdfdb5f6924587167c6f3a97f923424c6","amp;dn":"Harry.Brown.2009.720p.BRRip.x264.aac.mp4-anoXmous","amp;tr":["udp%3A%2F%2Ftracker.openbittorrent.com%3A80","udp%3A%2F%2Fopen.demonii.com%3A1337","udp%3A%2F%2Ftracker.coppersurfer.tk%3A6969","udp%3A%2F%2Fexodus.desync.com%3A6969"],"infoHash":"613a4bbcdfdb5f6924587167c6f3a97f923424c6","infoHashBuffer":{"type":"Buffer","data":[97,58,75,188,223,219,95,105,36,88,113,103,198,243,169,127,146,52,36,198]},"announce":[],"urlList":[]}}